<?xml version="1.0" encoding="UTF-8"?>
<svg id="Layer_2" data-name="Layer 2" xmlns="http://www.w3.org/2000/svg" viewBox="0 0 52 64">
  <defs>
    <style>
      .cls-1 {
        stroke-miterlimit: 10;
      }

      .cls-1, .cls-2 {
        fill: none;
        stroke: #424f34;
        stroke-linecap: round;
        stroke-width: 2px;
      }

      .cls-2 {
        stroke-linejoin: round;
      }
    </style>
  </defs>
  <g id="Layer_1-2" data-name="Layer 1">
    <g>
      <path class="cls-1" d="M51,63v-6c0-1.66-1.34-3-3-3H4c-1.66,0-3,1.34-3,3v6h50Z"/>
      <path class="cls-1" d="M27,23h-4.5c-1.92,0-4.11,2.63-4.85,5.85l-3.74,16.2c-.5,2.17.91,3.95,3.14,3.95h26.94v5"/>
      <circle class="cls-1" cx="26" cy="14" r="5"/>
      <polyline class="cls-1" points="27 19 27 37 37 37 37 5 27 5 27 9"/>
      <path class="cls-1" d="M22,17h-2c-3.3,0-6.95,2.53-8.11,5.62,0,0-6.89,20.41-6.89,22.88v4.5"/>
      <rect class="cls-1" x="29" y="1" width="6" height="4"/>
      <line class="cls-1" x1="37" y1="31" x2="30" y2="31"/>
      <rect class="cls-2" x="29.16" y="37" width="5.68" height="3.92"/>
    </g>
  </g>
</svg>