<?xml version="1.0" encoding="UTF-8"?>
<svg id="Layer_2" data-name="Layer 2" xmlns="http://www.w3.org/2000/svg" viewBox="0 0 67 67">
  <defs>
    <style>
      .cls-1 {
        fill: none;
      }

      .cls-1, .cls-2 {
        stroke: #000;
        stroke-linecap: round;
      }

      .cls-1, .cls-2, .cls-3 {
        stroke-miterlimit: 10;
        stroke-width: 3px;
      }

      .cls-2 {
        fill: #117300;
      }

      .cls-3 {
        fill: #fff;
        stroke: #222829;
      }
    </style>
  </defs>
  <circle class="cls-3" cx="33.5" cy="33.5" r="32"/>
  <g>
    <path class="cls-2" d="M26.6,48.79c1.13-9.53-.79-5.59-2.59-11.9-2.38-8.48,12.16-15.22,17.88-14.74,6.46,22.29-27.3,29.44-8.14,10.3"/>
    <g>
      <path class="cls-1" d="M13.46,47.51c3.23,4.76,9.47,10.05,17.39,10.83,10.35,1.02,17.45-5.5,18.86-6.85,7.42-7.14,7.65-14.01,7.65-19.16"/>
      <polygon points="11.25 40.43 10.69 51.7 13.9 47.94 18.74 48.87 11.25 40.43"/>
    </g>
    <g>
      <path class="cls-1" d="M53.54,19.49c-3.23-4.76-9.47-10.05-17.39-10.83-10.35-1.02-17.45,5.5-18.86,6.85-7.42,7.14-7.65,14.01-7.65,19.16"/>
      <polygon points="55.75 26.57 56.31 15.3 53.1 19.06 48.26 18.13 55.75 26.57"/>
    </g>
  </g>
</svg>