<?xml version="1.0" encoding="UTF-8"?>
<svg id="Layer_2" data-name="Layer 2" xmlns="http://www.w3.org/2000/svg" viewBox="0 0 67 67">
  <defs>
    <style>
      .cls-1 {
        fill: #f29823;
      }

      .cls-1, .cls-2, .cls-3, .cls-4 {
        stroke-miterlimit: 10;
      }

      .cls-1, .cls-4 {
        stroke: #424f34;
        stroke-width: 2px;
      }

      .cls-2 {
        fill: #fff;
      }

      .cls-2, .cls-3 {
        stroke: #222829;
        stroke-width: 3px;
      }

      .cls-3 {
        fill: #f4e9d5;
      }

      .cls-4 {
        fill: none;
      }
    </style>
  </defs>
  <g id="Layer_1-2" data-name="Layer 1">
    <g>
      <circle class="cls-2" cx="33.5" cy="33.5" r="32"/>
      <g>
        <path class="cls-1" d="M33.5,48.63c5.37,0,9.71-4.34,9.71-9.71-5.37,0-9.71,4.34-9.71,9.71Z"/>
        <path class="cls-1" d="M33.5,38.92c5.37,0,9.71-4.34,9.71-9.71-5.37,0-9.71,4.34-9.71,9.71Z"/>
        <path class="cls-1" d="M33.5,29.21c5.37,0,9.71-4.34,9.71-9.71-5.37,0-9.71,4.34-9.71,9.71Z"/>
        <path class="cls-4" d="M33.5,48.63c-5.37,0-9.71-4.34-9.71-9.71,5.37,0,9.71,4.34,9.71,9.71Z"/>
        <path class="cls-4" d="M33.5,38.92c-5.37,0-9.71-4.34-9.71-9.71,5.37,0,9.71,4.34,9.71,9.71Z"/>
        <path class="cls-4" d="M33.5,29.21c-5.37,0-9.71-4.34-9.71-9.71,5.37,0,9.71,4.34,9.71,9.71Z"/>
        <line class="cls-4" x1="33.5" y1="65.5" x2="33.5" y2="24.73"/>
        <path class="cls-4" d="M33.61,23.64c3.8-3.8,3.8-9.94,0-13.73-3.8,3.8-3.8,9.94,0,13.73Z"/>
      </g>
      <line class="cls-3" x1="10.88" y1="56.12" x2="56.12" y2="10.88"/>
    </g>
  </g>
</svg>