<?xml version="1.0" encoding="UTF-8"?>
<svg id="Layer_2" data-name="Layer 2" xmlns="http://www.w3.org/2000/svg" viewBox="0 0 67 67">
  <defs>
    <style>
      .cls-1 {
        fill: #fff;
      }

      .cls-1, .cls-2 {
        stroke: #222829;
        stroke-width: 3px;
      }

      .cls-1, .cls-3, .cls-4 {
        stroke-miterlimit: 10;
      }

      .cls-2 {
        fill: #f4e9d5;
        stroke-linejoin: bevel;
      }

      .cls-3 {
        fill: none;
      }

      .cls-3, .cls-4 {
        stroke: #424f34;
        stroke-linecap: round;
        stroke-width: 2px;
      }

      .cls-4 {
        fill: #f29823;
      }
    </style>
  </defs>
  <g id="Layer_1-2" data-name="Layer 1">
    <g>
      <circle class="cls-1" cx="33.5" cy="33.5" r="32"/>
      <g>
        <path class="cls-3" d="M30.4,47.13l-5.61,3.21c-.75.46-1.6,1.52-1.6,2.4v3.21"/>
        <path class="cls-3" d="M44.02,36.71v.8c0,.88-.85,1.94-1.6,2.4l-5.61,3.21"/>
        <path class="cls-3" d="M23.18,11.06v3.21c0,.88.85,1.94,1.6,2.4l17.63,10.42c.75.46,1.6,1.52,1.6,2.4v4.81"/>
        <path class="cls-3" d="M23.18,32.7v4.81c0,.88.85,1.94,1.6,2.4l17.63,10.42c.75.46,1.6,1.52,1.6,2.4v3.21"/>
        <path class="cls-3" d="M30.4,23.88l-5.61,3.21c-.75.46-1.6,1.52-1.6,2.4v.8"/>
        <path class="cls-3" d="M44.02,11.06v3.21c0,.88-.85,1.94-1.6,2.4l-5.61,3.21"/>
        <line class="cls-3" x1="15.71" y1="30.29" x2="31.56" y2="30.29"/>
        <line class="cls-3" x1="35.65" y1="36.71" x2="50.3" y2="36.71"/>
        <circle class="cls-4" cx="54.36" cy="36.71" r="4.86"/>
        <circle class="cls-4" cx="12.29" cy="30.29" r="3.42"/>
      </g>
      <line class="cls-2" x1="10.88" y1="56.12" x2="56.12" y2="10.88"/>
    </g>
  </g>
</svg>